<?xml version="1.0" encoding="iso-8859-1"?>
<!-- Uploaded to: SVG Repo, www.svgrepo.com, Generator: SVG Repo Mixer Tools -->
<svg version="1.1" id="Layer_1" xmlns="http://www.w3.org/2000/svg" xmlns:xlink="http://www.w3.org/1999/xlink" 
	 viewBox="0 0 512 512" xml:space="preserve">
<path style="fill:#D7DEED;" d="M341.96,394.485l-68.858-18.779H102.079l-68.858,18.779C18.34,398.544,8.017,412.06,8.017,427.484
	v59.387c0,9.445,7.658,17.102,17.102,17.102h324.944c9.445,0,17.102-7.658,17.102-17.102v-59.387
	C367.165,412.06,356.842,398.544,341.96,394.485z"/>
<rect x="127.733" y="315.847" style="fill:#D29B6E;" width="119.716" height="85.511"/>
<path style="fill:#F0C087;" d="M281.653,221.785h-3.42l2.96-18.499c9.215-57.594-35.273-109.768-93.601-109.768
	S84.776,145.693,93.991,203.286l2.96,18.499h-3.42c-9.445,0-17.102,7.656-17.102,17.102v17.102c0,9.445,7.658,17.102,17.102,17.102
	h11.63l3.447,21.541c1.306,8.164,5.526,15.579,11.878,20.872l34.319,28.599c4.61,3.842,10.422,5.946,16.424,5.946h32.731
	c6.002,0,11.813-2.105,16.424-5.946l34.319-28.599c6.351-5.293,10.572-12.708,11.878-20.872l3.447-21.541h11.63
	c9.445,0,17.102-7.658,17.102-17.102v-17.102C298.756,229.442,291.098,221.785,281.653,221.785z"/>
<path style="fill:#E4EAF6;" d="M389.679,8.654c-47.124,5.209-85.258,43.487-90.314,90.628
	c-4.698,43.81,18.213,82.786,53.482,101.753l-11.335,46.402c42.756-8.551,59.857-34.204,59.857-34.204
	c56.673,0,102.614-45.942,102.614-102.614C503.983,50.097,451.586,1.812,389.679,8.654z"/>
<polygon style="fill:#707487;" points="176.902,435.564 170.489,503.973 204.693,503.973 198.28,435.564 "/>
<path style="fill:#65687A;" d="M196.142,435.564H179.04c-4.722,0-8.551-3.829-8.551-8.551v-25.653h34.205v25.653
	C204.693,431.735,200.864,435.564,196.142,435.564z"/>
<g>
	<path style="fill:#E4EAF6;" d="M187.591,401.359l-61.178-45.883c-3.927-2.946-9.523-1.987-12.245,2.097l-12.088,18.133
		l37.507,52.509c2.852,3.992,8.47,4.772,12.3,1.707L187.591,401.359z"/>
	<path style="fill:#E4EAF6;" d="M187.591,401.359l61.178-45.883c3.927-2.946,9.523-1.987,12.245,2.097l12.088,18.133l-37.507,52.509
		c-2.852,3.992-8.47,4.772-12.3,1.707L187.591,401.359z"/>
</g>
<circle style="fill:#FFDC64;" cx="401.37" cy="110.619" r="68.409"/>
<circle style="fill:#FFF082;" cx="401.37" cy="110.619" r="34.205"/>
<path style="fill:#E7B452;" d="M435.574,129.86c0-18.614-19.207-23.95-31.916-27.482c-16.217-4.501-19.391-7.441-19.391-10.998
	c0-1.595,6.063-6.413,17.102-6.413c10.096,0,16.167,4.076,17.036,6.155c1.829,4.367,6.856,6.413,11.19,4.593
	c4.359-1.829,6.413-6.831,4.593-11.19c-3.375-8.052-12.677-13.901-24.267-15.875v-0.785c0-4.727-3.824-8.551-8.551-8.551
	s-8.551,3.825-8.551,8.551v0.764c-15.062,2.492-25.653,11.406-25.653,22.751c0,18.614,19.207,23.95,31.916,27.482
	c16.217,4.501,19.391,7.441,19.391,10.998c0,1.595-6.063,6.413-17.102,6.413c-10.096,0-16.167-4.076-17.036-6.155
	c-1.829-4.368-6.847-6.396-11.19-4.593c-4.359,1.829-6.413,6.831-4.593,11.19c3.375,8.052,12.677,13.901,24.267,15.875v0.785
	c0,4.727,3.824,8.551,8.551,8.551c4.727,0,8.551-3.825,8.551-8.551v-0.764C424.982,150.12,435.574,141.206,435.574,129.86z"/>
<g>
	<path style="fill:#E4EAF6;" d="M18.45,402.929c-6.492,6.289-10.433,15.051-10.433,24.557v59.387
		c0,9.446,7.656,17.102,17.102,17.102h42.756v-47.843c0-7.614-3.382-14.833-9.231-19.707L18.45,402.929z"/>
	<path style="fill:#E4EAF6;" d="M356.731,402.929c6.492,6.289,10.433,15.051,10.433,24.557v59.387
		c0,9.446-7.656,17.102-17.102,17.102h-42.756v-47.843c0-7.614,3.382-14.833,9.231-19.707L356.731,402.929z"/>
</g>
<path style="fill:#E6AF78;" d="M145.085,203.286c-6.76-51.106,21.468-97.856,61.599-107.761c-6.163-1.257-12.524-2.007-19.094-2.007
	c-58.327,0-102.816,52.175-93.601,109.768l2.96,18.499h-3.42c-9.445,0-17.102,7.656-17.102,17.102v17.102
	c0,9.445,7.658,17.102,17.102,17.102h11.63l3.447,21.541c1.306,8.164,5.526,15.579,11.878,20.872l34.319,28.599
	c4.61,3.842,10.422,5.946,16.424,5.946h7.08c-7.868-9.738-15.772-26.203-21.136-55.419L145.085,203.286z"/>
<path d="M344.069,386.751l-65.962-17.989l-10.423-15.635c-2.515-3.772-6.519-6.374-10.987-7.14
	c-0.409-0.071-0.821-0.107-1.231-0.145v-20.538l4.365-3.639c7.842-6.535,13.049-15.685,14.662-25.765l2.367-14.791h4.794
	c13.851,0,25.119-11.268,25.119-25.119v-17.102c0-11.829-8.222-21.769-19.25-24.42l1.586-9.914
	c4.764-29.773-3.724-60.008-23.289-82.95c-19.564-22.943-48.078-36.101-78.229-36.101s-58.665,13.158-78.229,36.101
	s-28.052,53.177-23.289,82.95l1.586,9.914c-11.028,2.651-19.25,12.59-19.25,24.42v17.102c0,13.851,11.268,25.119,25.119,25.119
	h4.794l2.367,14.791c1.613,10.08,6.82,19.229,14.662,25.765l4.365,3.638v20.538c-0.412,0.038-0.823,0.076-1.231,0.145
	c-4.468,0.765-8.473,3.368-10.987,7.14l-10.423,15.635l-65.962,17.989C12.794,391.747,0,408.497,0,427.485v59.387
	c0,13.851,11.268,25.119,25.119,25.119h324.944c13.851,0,25.119-11.268,25.119-25.119v-59.387
	C375.182,408.497,362.388,391.747,344.069,386.751z M343.492,403.526l-32.086,26.738c-7.7,6.415-12.116,15.843-12.116,25.866v39.826
	h-87.52l-6.863-54.909c3.515-2.203,6.139-5.679,7.231-9.785l6.15,4.92c2.946,2.357,6.63,3.629,10.371,3.629
	c0.751,0,1.505-0.051,2.255-0.156c4.487-0.622,8.571-3.093,11.205-6.78l34.261-47.967l63.471,17.31
	C341.112,402.564,342.322,403.011,343.492,403.526z M187.591,411.626l9.086,7.268v8.119c0,0.295-0.239,0.534-0.534,0.534H179.04
	c-0.295,0-0.534-0.239-0.534-0.534v-8.119L187.591,411.626z M186.117,443.581h2.949l6.547,52.376H179.57L186.117,443.581z
	 M263.363,375.549l-34.29,48.007c-0.036,0.051-0.134,0.187-0.362,0.219c-0.224,0.031-0.358-0.073-0.407-0.112l-27.623-22.098
	l52.898-39.674c0.051-0.037,0.184-0.14,0.412-0.099c0.227,0.04,0.32,0.178,0.355,0.23L263.363,375.549z M290.739,238.888v17.102
	c0,5.01-4.076,9.086-9.086,9.086h-2.229l5.542-34.639C288.341,231.764,290.739,235.048,290.739,238.888z M93.528,265.075
	c-5.01,0-9.086-4.076-9.086-9.086v-17.102c0-3.839,2.398-7.123,5.772-8.451l5.542,34.639H93.528z M101.905,202.02
	c-4.021-25.13,3.144-50.65,19.657-70.014c16.513-19.365,40.579-30.471,66.029-30.471s49.516,11.107,66.029,30.471
	c16.512,19.365,23.677,44.884,19.657,70.014l-14.615,91.348c-1,6.252-4.231,11.928-9.094,15.981l-34.32,28.599l0,0
	c-3.163,2.636-7.172,4.087-11.291,4.087h-32.732c-4.118,0-8.128-1.452-11.291-4.089l-34.32-28.599
	c-4.863-4.053-8.094-9.729-9.094-15.981L101.905,202.02z M149.67,350.265c6.038,5.032,13.694,7.805,21.555,7.805h32.732
	c7.862,0,15.517-2.772,21.555-7.805l0,0l13.92-11.601v13.793l-51.841,38.881l-51.841-38.881v-13.793L149.67,350.265z
	 M120.838,362.021c0.034-0.052,0.127-0.191,0.354-0.23c0.229-0.041,0.361,0.061,0.412,0.099l52.898,39.675l-27.623,22.098
	c-0.048,0.04-0.18,0.144-0.407,0.112c-0.228-0.032-0.326-0.168-0.361-0.219l-34.291-48.007L120.838,362.021z M98.801,384.91
	l34.261,47.967c2.634,3.687,6.718,6.158,11.204,6.78c0.75,0.105,1.504,0.156,2.255,0.156c3.741,0,7.426-1.272,10.371-3.629
	l6.15-4.92c1.092,4.106,3.717,7.582,7.231,9.785l-6.863,54.909h-87.52v-39.826c0-10.023-4.416-19.451-12.115-25.866l-32.086-26.738
	c1.169-0.515,2.38-0.962,3.641-1.306L98.801,384.91z M16.033,486.871v-59.387c0-4.741,1.303-9.246,3.581-13.152l33.898,28.249
	c4.033,3.362,6.346,8.299,6.346,13.549v39.826H25.119C20.109,495.956,16.033,491.881,16.033,486.871z M359.148,486.871
	c0,5.01-4.076,9.086-9.086,9.086h-34.739v-39.826c0-5.25,2.313-10.188,6.346-13.548l33.898-28.249
	c2.278,3.906,3.581,8.411,3.581,13.152L359.148,486.871L359.148,486.871z"/>
<path d="M401.37,34.194c-42.141,0-76.426,34.285-76.426,76.426s34.285,76.426,76.426,76.426s76.426-34.285,76.426-76.426
	S443.511,34.194,401.37,34.194z M401.37,171.013c-33.3,0-60.392-27.092-60.392-60.392s27.092-60.392,60.392-60.392
	s60.392,27.092,60.392,60.392S434.67,171.013,401.37,171.013z"/>
<path d="M403.515,102.896c-16.545-4.596-19.782-7.702-19.782-11.516c0-2.122,6.663-6.948,17.637-6.948
	c9.667,0,16.39,3.764,17.528,6.482c1.709,4.084,6.405,6.009,10.489,4.301c4.084-1.709,6.01-6.405,4.301-10.489
	c-3.346-7.997-12.665-13.839-24.302-15.696v-1.166c0-4.427-3.589-8.017-8.017-8.017c-4.427,0-8.017,3.589-8.017,8.017v1.143
	c-15.067,2.33-25.653,11.171-25.653,22.373c0,18.208,18.971,23.477,31.525,26.965c16.545,4.596,19.782,7.702,19.782,11.515
	c0,2.122-6.663,6.948-17.637,6.948c-9.667,0-16.39-3.764-17.528-6.482c-1.709-4.084-6.405-6.01-10.489-4.301
	c-4.084,1.709-6.01,6.405-4.301,10.489c3.346,7.997,12.665,13.839,24.302,15.696v1.166c0,4.427,3.589,8.017,8.017,8.017
	c4.427,0,8.017-3.589,8.017-8.017v-1.143c15.067-2.33,25.653-11.171,25.653-22.373C435.04,111.654,416.069,106.383,403.515,102.896z
	"/>
<path d="M475.151,28.185C451.753,7.231,420.283-2.791,388.799,0.687c-50.97,5.632-91.936,46.738-97.405,97.74
	c-4.622,43.09,15.752,84.242,52.236,106.559l-9.905,40.551c-0.65,2.663,0.105,5.472,2.001,7.45c1.527,1.593,3.625,2.469,5.787,2.469
	c0.523,0,1.05-0.051,1.572-0.156c36.368-7.274,55.608-26.221,62.258-34.119C464.511,219.083,512,170.293,512,110.62
	C512,79.204,498.569,49.158,475.151,28.185z M401.37,205.217c-2.681,0-5.183,1.339-6.67,3.57
	c-0.135,0.202-12.342,18.053-42.227,27.566l8.162-33.415c0.867-3.548-0.774-7.233-3.99-8.963
	c-34.1-18.339-53.455-55.173-49.308-93.84c4.674-43.579,39.675-78.702,83.224-83.514c27.351-3.025,53.593,5.325,73.894,23.506
	c20.026,17.936,31.512,43.63,31.512,70.492C495.967,162.782,453.53,205.217,401.37,205.217z"/>
</svg>